# AST/ASF file generated using VICON BodyLanguage
# -----------------------------------------------
:version 1.10
:name VICON
:units
  mass 1.0
  length 0.45
  angle deg
:documentation
   .ast/.asf automatically generated from VICON data using
   VICON BodyBuilder and BodyLanguage model FoxedUp or BRILLIANT.MOD
:root
   order TX TY TZ RX RY RZ
   axis XYZ
   position 0 0 0  
   orientation 0 0 0 
:bonedata
  begin
     id 1 
     name lhipjoint
     direction 0.662698 -0.695252 0.27831 
     length 2.53073 
     axis 0 0 0  XYZ
  end
  begin
     id 2 
     name lfemur
     direction 0.34202 -0.939693 0  
     length 7.16147  
     axis 0 0 20  XYZ
    dof rx ry rz
    limits (-160.0 20.0)
           (-70.0 70.0)
           (-60.0 70.0)
  end
  begin
     id 3 
     name ltibia
     direction 0.34202 -0.939693 0   
     length 7.63967   
     axis 0 0 20   XYZ
    dof rx
    limits (-10.0 170.0)
  end
  begin
     id 4 
     name lfoot
     direction 0.0938457 -0.257721 0.961651   
     length 1.89793   
     axis -90 7.62852e-016 20   XYZ
    dof rx rz
    limits (-45.0 90.0)
           (-70.0 20.0)
  end
  begin
     id 5 
     name ltoes
     direction -0.00116841 -0.0030592 0.999995   
     length 0.955649   
     axis -90 7.62852e-016 20   XYZ
    dof rx
    limits (-90.0 20.0)
  end
  begin
     id 6 
     name rhipjoint
     direction -0.649445 -0.705948 0.282592   
     length 2.49238  
     axis 0 0 0  XYZ 
  end
  begin
     id 7 
     name rfemur
     direction -0.34202 -0.939693 0   
     length 6.90728   
     axis 0 0 -20   XYZ
    dof rx ry rz
    limits (-160.0 20.0)
           (-70.0 70.0)
           (-70.0 60.0)
  end
  begin
     id 8 
     name rtibia
     direction -0.34202 -0.939693 0   
     length 7.72868   
     axis 0 0 -20   XYZ
    dof rx
    limits (-10.0 170.0)
 end
 begin
     id 9 
     name rfoot
     direction -0.0920068 -0.252865 0.963117   
     length 1.97476  
     axis -90 -7.62852e-016 -20   XYZ
    dof rx rz
    limits (-45.0 90.0)
           (-20.0 70.0)
  end
  begin
     id 10 
     name rtoes
     direction 0.000391322 0.00230649 0.999997   
     length 0.992641   
     axis -90 -7.62852e-016 -20   XYZ
    dof rx
    limits (-90.0 20.0)
  end
  begin
     id 11 
     name lowerback
     direction -0.00875327 0.998321 -0.0572635   
     length 2.20024   
     axis 0 0 0   XYZ
    dof rx ry rz
    limits (-20.0 45.0)
           (-30.0 30.0)
           (-30.0 30.0)
  end
  begin
     id 12 
     name upperback
     direction 0.00753931 0.999972 -0.000360425   
     length 2.20538   
     axis 0 0 0   XYZ
    dof rx ry rz
    limits (-20.0 45.0)
           (-30.0 30.0)
           (-30.0 30.0)
  end
  begin
     id 13 
     name thorax
     direction 0.0117767 0.999601 0.0256663   
     length 2.21508   
     axis 0 0 0   XYZ
    dof rx ry rz
    limits (-20.0 45.0)
           (-30.0 30.0)
           (-30.0 30.0)
  end
  begin
     id 14 
     name lowerneck
     direction 0.060228 0.994909 0.0807986   
     length 1.7607   
     axis 0 0 0   XYZ
    dof rx ry rz
    limits (-20.0 45.0)
           (-30.0 30.0)
           (-30.0 30.0)
  end
  begin
     id 15 
     name upperneck
     direction -0.0563647 0.959594 -0.275685   
     length 1.75612   
     axis 0 0 0   XYZ
    dof rx ry rz
    limits (-20.0 45.0)
           (-30.0 30.0)
           (-30.0 30.0)
  end
  begin
     id 16
     name head
     direction -0.0161544 0.99458 -0.102714  
     length 1.79288  
     axis 0 0 0   XYZ
    dof rx ry rz
    limits (-20.0 45.0)
           (-30.0 30.0)
           (-30.0 30.0)
  end
  begin
     id 17 
     name lclavicle
     direction 0.93913 0.332189 -0.087669  
     length 3.52087  
     axis 0 0 0   XYZ
    dof ry rz
    limits (-20.0 10.0)
           (0.0 20.0)
  end
  begin
     id 18 
     name lhumerus
     direction 1 -4.48974e-011 -2.70836e-027   
     length 5.35289   
     axis -180 -30 -90   XYZ
    dof rx ry rz
    limits (-60.0 90.0)
           (-90.0 90.0)
           (-90.0 90.0)
  end
  begin
     id 19
     name lradius
     direction 1 -4.48961e-011 -9.76021e-027   
     length 3.27727   
     axis -180 -30 -90   XYZ
    dof rx
    limits (-10.0 170.0)
  end
  begin
     id 20
     name lwrist
     direction 1 -4.49103e-011 -2.23668e-026   
     length 1.63864   
     axis 1.44924e-014 90 90   XYZ
    dof ry
    limits (-180.0 0.0)
 end
  begin
     id 21 
     name lhand
     direction 1 3.0697e-005 0.000161777   
     length 0.54443   
     axis 2.85318e-014 90 90   XYZ
    dof rx rz
    limits (-90.0 90.0)
           (-45.0 45.0)
  end
  begin
     id 22 
     name lfingers
     direction 1 -4.49027e-011 -8.9447e-026   
     length 0.438912   
     axis 5.70628e-014 90 90   XYZ
    dof rx
    limits (0.0 90.0)
  end
  begin
     id 23
     name lthumb
     direction 0.707058 2.6516e-005 0.707156   
     length 0.630274   
     axis -90 45 -3.53137e-014   XYZ
    dof rx rz
    limits (-45.0 45.0)
           (-45.0 45.0)
  end
  begin
     id 24 
     name rclavicle
     direction -0.95274 0.284984 -0.105215   
     length 3.43401  
     axis 0 0 0   XYZ 
    dof ry rz
    limits (-10.0 20.0)
           (-20.0 0.0)
  end
  begin
     id 25 
     name rhumerus
     direction -0.999999 -0.000575019 -0.00106829  
     length 5.52077   
     axis -180 30 90   XYZ
    dof rx ry rz
    limits (-90.0 60.0)
           (-90.0 90.0)
           (-90.0 90.0)
  end
  begin
     id 26 
     name rradius
     direction -1 -4.4879e-011 -6.35415e-027   
     length 3.32364   
     axis -180 30 90   XYZ
    dof rx
    limits (-10.0 170.0)
  end
  begin
     id 27 
     name rwrist
     direction -1 -4.49048e-011 -9.98542e-027   
     length 1.66182   
     axis 6.32482e-015 -90 -90   XYZ
    dof ry
    limits (-180.0 0.0)
  end
  begin
     id 28
     name rhand
     direction -1 -4.48978e-011 -1.99771e-026   
     length 0.732235   
     axis 1.27479e-014 -90 -90   XYZ
    dof rx rz
    limits (-90.0 90.0)
           (-45.0 45.0)
  end
  begin
     id 29
     name rfingers
     direction -1 -4.49144e-011 -3.99245e-026   
     length 0.590347   
     axis 2.5496e-014 -90 -90   XYZ
    dof rx
    limits (0.0 90.0)
  end
  begin
     id 30
     name rthumb
     direction -0.707107 -6.35121e-011 0.707107   
     length 0.847624   
     axis -90 -45 -2.82974e-014   XYZ
    dof rx rz
    limits (-45.0 45.0)
           (-45.0 45.0)
  end
:hierarchy
  begin
    root lhipjoint rhipjoint lowerback
    lhipjoint lfemur
    lfemur ltibia
    ltibia lfoot
    lfoot ltoes
    rhipjoint rfemur
    rfemur rtibia
    rtibia rfoot
    rfoot rtoes
    lowerback upperback
    upperback thorax
    thorax lowerneck lclavicle rclavicle
    lowerneck upperneck
    upperneck head
    lclavicle lhumerus
    lhumerus lradius
    lradius lwrist
    lwrist lhand lthumb
    lhand lfingers
    rclavicle rhumerus
    rhumerus rradius
    rradius rwrist
    rwrist rhand rthumb
    rhand rfingers
  end

#!OML:ASF G:\Work\Work\Patient Classification 1\Elijah\terrain1\Elijah.ASF
:FULLY-SPECIFIED
:DEGREES
309
root 14.2465 21.749 17.637 7.46974 5.91156 -0.592779
lowerback 6.54721 1.09809 6.49032
upperback 1.12358 2.05774 4.9895
thorax -2.46889 0.989387 1.35253
lowerneck -13.8582 13.0095 11.1433
upperneck 36.8852 21.1381 -10.5136
head 18.8784 8.99293 -2.18977
rclavicle 4.41302e-014 4.77083e-014
rhumerus -31.012 -3.3046 -76.0532
rradius 33.5419
rwrist -3.58781
rhand -14.475 20.5242
rfingers 7.12502
rthumb 11.6711 -9.1307
lclavicle 4.41302e-014 4.77083e-014
lhumerus -43.41 13.3026 78.635
lradius 37.3545
lwrist 3.9891
lhand -15.5983 25.6858
lfingers 7.12502
lthumb 10.5877 55.3991
rfemur -12.1475 -9.08371 27.2662
rtibia 20.3333
rfoot -15.0968 -5.62239
rtoes 0.321339
lfemur -30.789 11.4889 -20.4505
ltibia 77.2546
lfoot 10.9769 -11.3599
ltoes 0.483201
310
root 14.2376 21.7529 17.6797 7.41188 5.59086 -0.563033
lowerback 6.76986 1.19683 6.4405
upperback 1.27182 2.19542 4.98461
thorax -2.43776 1.06023 1.36006
lowerneck -13.9768 13.0633 11.1055
upperneck 36.6664 21.2803 -10.7392
head 18.8452 9.01599 -2.23834
rclavicle 2.0276e-014 -7.95139e-015
rhumerus -30.1821 -3.25983 -76.0734
rradius 33.4092
rwrist -3.27116
rhand -14.3404 20.7787
rfingers 7.12502
rthumb 11.8009 -8.86886
lclavicle 2.0276e-014 -7.95139e-015
lhumerus -43.0342 13.7978 78.4044
lradius 36.9844
lwrist 3.72505
lhand -15.9606 24.3957
lfingers 7.12502
lthumb 10.2381 54.1265
rfemur -11.4778 -8.73423 27.2894
rtibia 19.341
rfoot -14.3417 -6.07435
rtoes -1.06462
lfemur -31.8918 11.7898 -20.7345
ltibia 78.0164
lfoot 9.67538 -11.2896
ltoes -1.0618
311
root 14.2487 21.7732 17.7715 7.41475 5.78385 -0.776444
lowerback 7.30777 1.22434 7.19309
upperback 0.616727 2.39576 4.83702
thorax -3.38138 1.11849 0.753059
lowerneck -13.3547 12.9847 11.6121
upperneck 37.1688 21.208 -10.7707
head 19.0679 9.08056 -2.39819
rclavicle 1.15295e-014 1.11319e-014
rhumerus -30.9998 -3.43324 -76.0196
rradius 33.5421
rwrist -2.95667
rhand -14.2562 20.6031
rfingers 7.12502
rthumb 11.8821 -9.03977
lclavicle 1.15295e-014 1.11319e-014
lhumerus -43.9035 13.2199 78.0439
lradius 36.7741
lwrist 3.59528
lhand -16.5456 23.791
lfingers 7.12502
lthumb 9.67375 53.5488
rfemur -10.6913 -9.64685 27.5093
rtibia 18.5627
rfoot -13.9595 -5.68995
rtoes -2.82887
lfemur -32.6959 11.5516 -20.7389
ltibia 78.5265
lfoot 9.09168 -11.097
ltoes -1.77732
312
root 14.2458 21.7898 17.8648 7.33982 5.86419 -0.879728
lowerback 6.8842 1.17675 7.3056
upperback 0.844948 2.27723 4.90962
thorax -2.90833 1.07483 0.790008
lowerneck -13.3662 13.1522 12.0621
upperneck 37.1452 21.58 -11.2843
head 19.3228 9.22583 -2.60264
rclavicle -1.15295e-014 -6.36111e-015
rhumerus -30.2089 -3.22772 -76.0545
rradius 33.4549
rwrist -2.6474
rhand -14.1489 20.3565
rfingers 7.12502
rthumb 11.9855 -9.28036
lclavicle -1.15295e-014 -6.36111e-015
lhumerus -43.6173 13.6339 77.9176
lradius 36.5834
lwrist 3.32704
lhand -16.5538 24.0082
lfingers 7.12502
lthumb 9.66584 53.7664
rfemur -9.65465 -10.0468 27.6162
rtibia 17.472
rfoot -13.4919 -5.57836
rtoes -2.89968
lfemur -33.3108 11.4077 -20.7518
ltibia 78.8657
lfoot 8.46759 -11.0221
ltoes -1.89962
313
root 14.2393 21.8015 17.9652 7.26502 5.87258 -0.937684
lowerback 6.36029 1.15775 7.33671
upperback 1.12646 2.17201 4.94589
thorax -2.32522 1.04222 0.834838
lowerneck -13.3983 13.2041 12.2379
upperneck 37.0164 21.7404 -11.6345
head 19.3955 9.27224 -2.74441
rclavicle -2.8625e-014 -1.01778e-013
rhumerus -29.4243 -3.3204 -76.0876
rradius 33.4535
rwrist -2.33475
rhand -13.8927 20.0853
rfingers 7.12502
rthumb 12.2325 -9.53701
lclavicle -2.8625e-014 -1.01778e-013
lhumerus -43.4753 13.6404 77.8582
lradius 36.6311
lwrist 3.46609
lhand -15.9463 24.0725
lfingers 7.12502
lthumb 10.252 53.8027
rfemur -8.49012 -10.2706 27.6554
rtibia 16.0956
rfoot -13.067 -5.42401
rtoes -1.03768
lfemur -33.6441 11.4114 -20.8501
ltibia 79.0112
lfoot 7.09056 -11.1473
ltoes -2.00337
314
root 14.246 21.8313 18.0545 7.2211 5.9367 -1.03569
lowerback 5.87789 1.10681 7.62189
upperback 1.41241 2.0423 4.95055
thorax -1.75208 0.995898 0.706951
lowerneck -13.5099 13.2676 12.072
upperneck 36.8255 21.8503 -11.6738
head 19.3073 9.2853 -2.69589
rclavicle -1.90833e-014 2.06736e-014
rhumerus -28.613 -3.6711 -76.0836
rradius 33.4523
rwrist -1.97923
rhand -13.582 19.8869
rfingers 7.12502
rthumb 12.5321 -9.71731
lclavicle -1.90833e-014 2.06736e-014
lhumerus -43.0381 13.9564 77.8596
lradius 36.5513
lwrist 3.30098
lhand -15.8786 23.6986
lfingers 7.12502
lthumb 10.3173 53.4256
rfemur -7.59039 -10.8485 27.6744
rtibia 15.0278
rfoot -12.7131 -4.9539
rtoes 0.0822838
lfemur -34.3275 11.2909 -21.0435
ltibia 79.0298
lfoot 6.03449 -11.2898
ltoes -5.01841
315
root 14.2691 21.8429 18.117 7.18607 6.21373 -1.55406
lowerback 6.3419 0.97466 8.63728
upperback 1.00112 2.02713 5.00078
thorax -2.40823 0.955135 0.187285
lowerneck -12.9403 13.344 12.2472
upperneck 36.8367 22.0039 -11.7082
head 19.232 9.40519 -2.73644
rclavicle -7.55382e-015 4.29375e-014
rhumerus -28.9209 -3.78637 -76.0147
rradius 33.6169
rwrist -1.82444
rhand -13.6533 19.838
rfingers 7.12502
rthumb 12.4633 -9.7704
lclavicle -7.55382e-015 4.29375e-014
lhumerus -43.4819 13.8933 77.7293
lradius 36.6681
lwrist 3.09953
lhand -16.2255 23.5175
lfingers 7.12502
lthumb 9.98265 53.2607
rfemur -6.92695 -11.8994 28.12
rtibia 14.1954
rfoot -12.2158 -4.22984
rtoes -0.520469
lfemur -35.229 10.8048 -20.7767
ltibia 79.1587
lfoot 5.52498 -11.4697
ltoes -3.7704
316
root 14.2392 21.8426 18.1855 7.27741 5.60138 -1.41277
lowerback 6.45441 1.20743 8.03654
upperback 1.02552 2.30731 5.04247
thorax -2.45467 1.09817 0.536058
lowerneck -12.9892 13.4824 12.2847
upperneck 36.7323 22.249 -11.8288
head 19.2649 9.4924 -2.72497
rclavicle -1.03368e-014 3.18055e-014
rhumerus -28.5571 -3.76841 -76.0215
rradius 33.7517
rwrist -2.03077
rhand -13.9264 19.8717
rfingers 7.12502
rthumb 12.2001 -9.75253
lclavicle -1.03368e-014 3.18055e-014
lhumerus -43.6635 13.9293 77.7103
lradius 36.9676
lwrist 2.90989
lhand -15.8972 23.817
lfingers 7.12502
lthumb 10.2993 53.5448
rfemur -6.51789 -10.3043 28.0963
rtibia 13.6873
rfoot -11.8728 -5.35982
rtoes -0.949852
lfemur -36.194 11.2141 -21.0017
ltibia 79.131
lfoot 5.94204 -11.77
ltoes 1.28102
317
root 14.2366 21.841 18.2411 7.23693 5.52695 -1.59255
lowerback 6.54826 1.20651 8.27068
upperback 1.13838 2.3233 5.0546
thorax -2.37978 1.10818 0.417804
lowerneck -13.1893 13.5946 12.2804
upperneck 36.6152 22.3905 -11.8463
head 19.277 9.53319 -2.67612
rclavicle -2.50469e-014 2.06736e-014
rhumerus -28.1059 -3.9286 -76.0841
rradius 34.1122
rwrist -2.24635
rhand -13.9095 19.9955
rfingers 7.12502
rthumb 12.2164 -9.62772
lclavicle -2.50469e-014 2.06736e-014
lhumerus -43.2431 14.3822 77.5051
lradius 36.4141
lwrist 2.36856
lhand -15.3053 23.936
lfingers 7.12502
lthumb 10.8703 53.6347
rfemur -6.15091 -10.1536 28.3174
rtibia 13.4248
rfoot -11.887 -5.56663
rtoes -0.797741
lfemur -37.0191 11.1642 -20.9967
ltibia 79.0773
lfoot 5.3271 -11.3016
ltoes 1.87644
318
root 14.2238 21.8422 18.3039 7.27381 5.18344 -1.36148
lowerback 6.88982 1.28662 7.86109
upperback 0.982407 2.45367 4.98595
thorax -2.74152 1.16257 0.549678
lowerneck -12.7974 13.7239 12.8515
upperneck 36.5839 22.6555 -12.2439
head 19.4086 9.6945 -2.89921
rclavicle -3.37934e-014 1.43125e-014
rhumerus -28.248 -4.20188 -76.0673
rradius 34.7456
rwrist -2.15541
rhand -13.9215 19.9418
rfingers 7.12502
rthumb 12.2048 -9.68216
lclavicle -3.37934e-014 1.43125e-014
lhumerus -43.2846 14.5423 77.3242
lradius 36.0255
lwrist 2.12499
lhand -14.8996 24.5559
lfingers 7.12502
lthumb 11.2615 54.2336
rfemur -5.72233 -9.54916 28.1172
rtibia 12.919
rfoot -11.5902 -5.94952
rtoes 0.356921
lfemur -37.7099 11.2201 -21.4103
ltibia 78.7352
lfoot 3.63805 -10.3112
ltoes -2.52379
319
root 14.239 21.838 18.3466 7.32248 5.33819 -1.91646
lowerback 7.4926 1.20787 8.77545
upperback 0.605798 2.53298 5.04067
thorax -3.43537 1.16125 0.0772983
lowerneck -12.5757 13.4106 12.2964
upperneck 36.8544 22.1746 -11.7765
head 19.2057 9.49597 -2.75645
rclavicle -4.17448e-014 -3.02153e-014
rhumerus -28.498 -4.45951 -75.9889
rradius 35.1889
rwrist -2.09436
rhand -14.081 19.7527
rfingers 7.12502
rthumb 12.051 -9.88031
lclavicle -4.17448e-014 -3.02153e-014
lhumerus -43.6267 14.2316 77.4075
lradius 36.2175
lwrist 2.01179
lhand -14.4138 25.8703
lfingers 7.12502
lthumb 11.7301 55.5218
rfemur -5.4158 -9.95187 28.6884
rtibia 12.4322
rfoot -10.9234 -5.69572
rtoes 1.6395
lfemur -38.6099 10.7329 -21.0384
ltibia 78.3326
lfoot 2.18381 -9.61147
ltoes -6.46655
320
root 14.2409 21.8606 18.509 7.17053 5.19696 -2.11077
lowerback 6.65763 1.31748 8.9591
upperback 0.838062 2.56178 5.0958
thorax -2.7152 1.2028 0.0575659
lowerneck -12.6019 13.3556 12.0331
upperneck 36.8498 22.0871 -11.619
head 19.108 9.44448 -2.66643
rclavicle 3.18055e-015 -4.29375e-014
rhumerus -28.2385 -4.60943 -75.9436
rradius 35.2755
rwrist -2.44056
rhand -14.0621 19.6023
rfingers 7.12502
rthumb 12.0692 -10.0296
lclavicle 3.18055e-015 -4.29375e-014
lhumerus -43.5567 14.3521 77.3053
lradius 35.6041
lwrist 1.62578
lhand -14.8137 22.5976
lfingers 7.12502
lthumb 11.3445 52.2707
rfemur -4.12736 -10.5219 28.7194
rtibia 11.483
rfoot -10.4969 -5.13033
rtoes 2.18996
lfemur -38.3168 10.6977 -20.8879
ltibia 77.5092
lfoot 0.549947 -9.8294
ltoes -9.62232
321
root 14.2596 21.8742 18.5702 7.47864 5.34196 -1.88507
lowerback 6.34385 1.27104 9.06314
upperback 0.918322 2.45397 4.97495
thorax -2.45171 1.15857 -0.106544
lowerneck -12.6941 13.523 12.3067
upperneck 36.5857 22.3881 -12.0073
head 19.1699 9.55473 -2.79164
rclavicle -2.50469e-014 3.65764e-014
rhumerus -27.566 -4.69481 -75.9918
rradius 35.3297
rwrist -2.85262
rhand -14.1363 19.8526
rfingers 7.12502
rthumb 11.9977 -9.78356
lclavicle -2.50469e-014 3.65764e-014
lhumerus -42.874 14.5455 77.5101
lradius 35.3865
lwrist 1.52687
lhand -14.7267 23.8729
lfingers 7.12502
lthumb 11.4284 53.5414
rfemur -3.78709 -11.106 28.4387
rtibia 10.6434
rfoot -9.94218 -4.78876
rtoes 2.24361
lfemur -39.0565 10.0496 -21.4515
ltibia 76.5542
lfoot -0.35812 -9.72968
ltoes -11.2872
